<svg width="146" height="64" viewBox="0 0 146 64" fill="none" xmlns="http://www.w3.org/2000/svg">
<path d="M16.228 9.39917V48.3936H4.53247C3.51078 45.9447 2.8481 43.361 2.56494 40.7227V9.39917H16.228Z" fill="#0373E6"/>
<path d="M28.182 12.453C27.8973 12.453 27.6197 12.46 27.3421 12.4671C23.4445 12.5893 19.626 13.5983 16.1767 15.4174C16.0942 15.4596 16.0107 15.5009 15.9272 15.5491C12.2672 17.5277 9.1403 20.3625 6.81346 23.8116C4.48663 27.2606 3.02898 31.2216 2.56493 35.3562C2.35303 37.2662 2.35303 39.1938 2.56493 41.1038C2.84292 43.6153 3.49103 46.0718 4.4882 48.3936C8.4313 57.5713 17.5467 64 28.175 64H28.182C42.4134 64 53.952 52.4614 53.952 38.23V38.223C53.9449 23.9846 42.4134 12.453 28.182 12.453ZM40.1853 38.23C40.1832 41.4128 38.9179 44.4647 36.6673 46.7153C34.4167 48.9659 31.3648 50.2312 28.182 50.2333H28.175C25.1848 50.2314 22.3029 49.1138 20.0933 47.0992C17.8836 45.0845 16.5053 42.3178 16.228 39.3405C16.1881 38.9731 16.1693 38.6036 16.1716 38.234C16.1726 35.1963 17.3254 32.2719 19.3974 30.0505C21.4695 27.8291 24.3067 26.476 27.3371 26.2639C27.6163 26.238 27.8966 26.2262 28.177 26.2287C31.3598 26.2308 34.4117 27.4962 36.6623 29.7467C38.9129 31.9973 40.1782 35.0492 40.1803 38.232L40.1853 38.23Z" fill="#0373E6"/>
<path d="M16.1696 39.3406V38.2341C16.1673 38.6037 16.1861 38.9732 16.226 39.3406H16.1696Z" fill="#F5B647"/>
<path d="M27.3422 12.463V26.2548C24.3118 26.4669 21.4746 27.82 19.4025 30.0414C17.3305 32.2628 16.1777 35.1872 16.1768 38.2249V15.4173C19.6257 13.5969 23.4442 12.5865 27.3422 12.463Z" fill="#229EFD"/>
<path d="M53.9521 38.2229V38.2299C53.9521 52.4613 42.4135 63.9999 28.1821 63.9999H28.175V50.2333H28.1821C31.3649 50.2311 34.4168 48.9658 36.6674 46.7152C38.918 44.4646 40.1833 41.4128 40.1854 38.2299V38.2229H53.9521Z" fill="#229EFD"/>
<path d="M53.9522 38.2229H40.1855C40.1834 35.04 38.9181 31.9882 36.6675 29.7376C34.4169 27.487 31.365 26.2217 28.1822 26.2195C27.9018 26.217 27.6215 26.2288 27.3423 26.2547V12.4629C27.6199 12.4559 27.8975 12.4489 28.1822 12.4489C42.4136 12.4529 53.9451 23.9844 53.9522 38.2229Z" fill="#0373E6"/>
<path d="M17.9996 5.97998H15.009V8.9705H17.9996V5.97998Z" fill="#010101"/>
<path d="M20.99 2.99048H17.9995V5.981H20.99V2.99048Z" fill="#229EFD"/>
<path d="M17.9996 0H15.009V2.99052H17.9996V0Z" fill="#010101"/>
<path d="M4.81211 7.00806H2.87476V8.94541H4.81211V7.00806Z" fill="#010101"/>
<path d="M10.1464 9.31067H7.00195V12.4551H10.1464V9.31067Z" fill="#229EFD"/>
<path d="M4.81211 2.16565H2.87476V4.103H4.81211V2.16565Z" fill="#010101"/>
<path d="M2.87484 4H0V6.87484H2.87484V4Z" fill="#229EFD"/>
<path d="M23.8066 41.5877C25.2715 41.5877 26.4591 40.0844 26.4591 38.23C26.4591 36.3756 25.2715 34.8723 23.8066 34.8723C22.3416 34.8723 21.1541 36.3756 21.1541 38.23C21.1541 40.0844 22.3416 41.5877 23.8066 41.5877Z" fill="#010101"/>
<path d="M32.5507 41.5877C34.0157 41.5877 35.2033 40.0844 35.2033 38.23C35.2033 36.3756 34.0157 34.8723 32.5507 34.8723C31.0858 34.8723 29.8982 36.3756 29.8982 38.23C29.8982 40.0844 31.0858 41.5877 32.5507 41.5877Z" fill="#010101"/>
<path d="M140.915 43.9106C141.55 43.9106 142.012 43.8331 142.303 43.6781C142.593 43.5089 142.739 43.2271 142.739 42.8325C142.739 42.4661 142.58 42.1631 142.263 41.9235C141.959 41.6839 141.45 41.4232 140.737 41.1413C140.301 40.9722 139.898 40.796 139.528 40.6128C139.171 40.4155 138.861 40.19 138.597 39.9364C138.333 39.6827 138.121 39.3797 137.963 39.0274C137.817 38.6609 137.745 38.217 137.745 37.6956C137.745 36.6809 138.095 35.8846 138.795 35.3068C139.495 34.7149 140.446 34.4189 141.649 34.4189C142.256 34.4189 142.838 34.4824 143.393 34.6092C143.948 34.7219 144.364 34.8347 144.641 34.9474L144.205 37.0191C143.941 36.8923 143.604 36.7795 143.194 36.6809C142.785 36.5681 142.309 36.5118 141.768 36.5118C141.279 36.5118 140.882 36.6034 140.579 36.7866C140.275 36.9557 140.123 37.2235 140.123 37.5899C140.123 37.7731 140.149 37.9352 140.202 38.0761C140.268 38.217 140.374 38.3509 140.519 38.4777C140.664 38.5905 140.856 38.7103 141.094 38.8371C141.332 38.9499 141.622 39.0696 141.966 39.1965C142.534 39.422 143.016 39.6475 143.412 39.8729C143.809 40.0843 144.132 40.331 144.383 40.6128C144.648 40.8806 144.839 41.1906 144.958 41.543C145.077 41.8953 145.137 42.3181 145.137 42.8113C145.137 43.8683 144.767 44.6716 144.027 45.2213C143.3 45.7568 142.256 46.0246 140.896 46.0246C139.984 46.0246 139.251 45.94 138.696 45.7709C138.141 45.6159 137.751 45.489 137.527 45.3904L137.943 43.2553C138.299 43.4103 138.722 43.5583 139.211 43.6992C139.713 43.8401 140.281 43.9106 140.915 43.9106Z" fill="#010101"/>
<path d="M129.917 31.7766L132.315 31.3538V34.6938H136.001V36.8289H132.315V41.3316C132.315 42.2195 132.447 42.8537 132.712 43.2342C132.976 43.6147 133.425 43.8049 134.059 43.8049C134.495 43.8049 134.878 43.7556 135.209 43.657C135.552 43.5583 135.823 43.4667 136.021 43.3822L136.417 45.4116C136.14 45.5384 135.777 45.6652 135.327 45.7921C134.878 45.933 134.35 46.0035 133.742 46.0035C133.002 46.0035 132.381 45.8978 131.879 45.6864C131.39 45.475 131.001 45.172 130.71 44.7774C130.419 44.3687 130.214 43.8825 130.096 43.3187C129.977 42.7409 129.917 42.0856 129.917 41.3528V31.7766Z" fill="#010101"/>
<path d="M127.566 40.2112C127.566 41.0849 127.447 41.8812 127.209 42.5999C126.971 43.3187 126.634 43.9317 126.198 44.4391C125.762 44.9464 125.234 45.341 124.613 45.6229C124.005 45.9048 123.332 46.0457 122.592 46.0457C121.852 46.0457 121.178 45.9048 120.57 45.6229C119.963 45.341 119.441 44.9464 119.005 44.4391C118.569 43.9317 118.225 43.3187 117.974 42.5999C117.736 41.8812 117.617 41.0849 117.617 40.2112C117.617 39.3374 117.736 38.5482 117.974 37.8436C118.225 37.1248 118.569 36.5118 119.005 36.0044C119.454 35.4971 119.982 35.1095 120.59 34.8417C121.198 34.5599 121.865 34.4189 122.592 34.4189C123.318 34.4189 123.985 34.5599 124.593 34.8417C125.214 35.1095 125.743 35.4971 126.179 36.0044C126.615 36.5118 126.952 37.1248 127.189 37.8436C127.44 38.5482 127.566 39.3374 127.566 40.2112ZM125.108 40.2112C125.108 39.1119 124.884 38.2452 124.435 37.611C123.999 36.9627 123.384 36.6386 122.592 36.6386C121.799 36.6386 121.178 36.9627 120.729 37.611C120.293 38.2452 120.075 39.1119 120.075 40.2112C120.075 41.3245 120.293 42.2053 120.729 42.8536C121.178 43.5019 121.799 43.826 122.592 43.826C123.384 43.826 123.999 43.5019 124.435 42.8536C124.884 42.2053 125.108 41.3245 125.108 40.2112Z" fill="#010101"/>
<path d="M109.428 45.9189C108.702 45.9189 107.968 45.8908 107.229 45.8344C106.489 45.7921 105.841 45.6935 105.286 45.5384V31.3115C105.577 31.2551 105.888 31.2058 106.218 31.1635C106.548 31.1072 106.885 31.0649 107.229 31.0367C107.572 31.0085 107.909 30.9874 108.239 30.9733C108.583 30.9592 108.906 30.9521 109.21 30.9521C110.043 30.9521 110.815 31.0226 111.529 31.1635C112.242 31.2904 112.857 31.5088 113.372 31.8189C113.9 32.1289 114.31 32.5376 114.601 33.045C114.891 33.5523 115.037 34.1795 115.037 34.9264C115.037 35.6169 114.878 36.2088 114.561 36.7021C114.257 37.1954 113.828 37.59 113.273 37.8859C114.105 38.1819 114.72 38.6188 115.116 39.1966C115.512 39.7744 115.71 40.5072 115.71 41.3951C115.71 42.903 115.195 44.0375 114.165 44.7985C113.134 45.5455 111.555 45.9189 109.428 45.9189ZM107.744 39.1543V43.6147C108.021 43.6429 108.318 43.6641 108.636 43.6782C108.953 43.6922 109.243 43.6993 109.508 43.6993C110.023 43.6993 110.498 43.6641 110.934 43.5936C111.384 43.5231 111.767 43.4033 112.084 43.2342C112.414 43.051 112.672 42.8114 112.857 42.5155C113.055 42.2195 113.154 41.839 113.154 41.3739C113.154 40.5425 112.87 39.9646 112.302 39.6405C111.734 39.3164 110.948 39.1543 109.944 39.1543H107.744ZM107.744 37.0615H109.508C110.459 37.0615 111.205 36.9205 111.747 36.6387C112.289 36.3427 112.559 35.8213 112.559 35.0744C112.559 34.3697 112.275 33.8694 111.707 33.5735C111.152 33.2775 110.426 33.1295 109.527 33.1295C109.144 33.1295 108.801 33.1366 108.497 33.1507C108.206 33.1648 107.955 33.1859 107.744 33.2141V37.0615Z" fill="#010101"/>
<path d="M93.2712 40.2746C93.2712 39.3022 93.4034 38.4496 93.6676 37.7167C93.945 36.9839 94.3084 36.3779 94.7576 35.8987C95.2068 35.4055 95.722 35.039 96.3033 34.7995C96.8846 34.5458 97.4792 34.4189 98.0869 34.4189C99.5138 34.4189 100.624 34.8911 101.416 35.8353C102.222 36.7795 102.625 38.1888 102.625 40.0632C102.625 40.2041 102.619 40.3662 102.605 40.5494C102.605 40.7185 102.599 40.8736 102.586 41.0145H95.7484C95.8145 41.9023 96.1052 42.5929 96.6204 43.0862C97.1489 43.5653 97.9086 43.8049 98.8994 43.8049C99.4808 43.8049 100.009 43.7485 100.485 43.6358C100.974 43.523 101.357 43.4033 101.634 43.2764L101.951 45.3692C101.819 45.4397 101.634 45.5172 101.396 45.6018C101.172 45.6722 100.908 45.7356 100.604 45.792C100.313 45.8625 99.996 45.9189 99.6525 45.9611C99.309 46.0034 98.9589 46.0246 98.6022 46.0246C97.6906 46.0246 96.8979 45.8836 96.2241 45.6018C95.5503 45.3058 94.9954 44.9042 94.5594 44.3968C94.1234 43.8754 93.7997 43.2694 93.5883 42.5788C93.3769 41.8742 93.2712 41.1061 93.2712 40.2746ZM100.227 39.1331C100.227 38.7807 100.181 38.4496 100.088 38.1395C99.996 37.8154 99.8573 37.5405 99.6723 37.3151C99.5006 37.0755 99.2826 36.8923 99.0183 36.7654C98.7673 36.6245 98.4634 36.554 98.1067 36.554C97.7368 36.554 97.4131 36.6316 97.1357 36.7866C96.8582 36.9275 96.6204 37.1178 96.4222 37.3573C96.2373 37.5969 96.0919 37.8717 95.9863 38.1818C95.8806 38.4918 95.8079 38.8089 95.7683 39.1331H100.227Z" fill="#010101"/>
<path d="M85.6179 31.7766L88.0158 31.3538V34.6938H91.7019V36.8289H88.0158V41.3316C88.0158 42.2195 88.148 42.8537 88.4122 43.2342C88.6764 43.6147 89.1256 43.8049 89.7598 43.8049C90.1958 43.8049 90.5789 43.7556 90.9092 43.657C91.2527 43.5583 91.5236 43.4667 91.7217 43.3822L92.1181 45.4116C91.8406 45.5384 91.4773 45.6652 91.0281 45.7921C90.5789 45.933 90.0505 46.0035 89.4427 46.0035C88.7029 46.0035 88.0819 45.8978 87.5799 45.6864C87.091 45.475 86.7013 45.172 86.4106 44.7774C86.12 44.3687 85.9152 43.8825 85.7963 43.3187C85.6774 42.7409 85.6179 42.0856 85.6179 41.3528V31.7766Z" fill="#010101"/>
<path d="M83.9227 34.6938C82.8525 38.8936 81.6106 42.6987 80.197 46.1092C79.9327 46.7434 79.6619 47.286 79.3845 47.7369C79.107 48.1879 78.7965 48.5614 78.453 48.8573C78.1095 49.1533 77.7264 49.3647 77.3036 49.4915C76.8808 49.6325 76.392 49.7029 75.8371 49.7029C75.4672 49.7029 75.0972 49.6606 74.7273 49.5761C74.3706 49.4915 74.0998 49.3999 73.9148 49.3013L74.3508 47.2507C74.8264 47.448 75.2954 47.5467 75.7578 47.5467C76.3788 47.5467 76.861 47.3846 77.2045 47.0605C77.5612 46.7504 77.8717 46.2642 78.1359 45.6019C77.3829 44.0516 76.6562 42.3605 75.956 40.5284C75.269 38.6963 74.6547 36.7514 74.113 34.6938H76.6694C76.8016 35.2858 76.9601 35.927 77.1451 36.6175C77.3432 37.3081 77.5546 38.0128 77.7792 38.7315C78.0038 39.4362 78.2416 40.1408 78.4927 40.8455C78.7437 41.5501 78.9947 42.2054 79.2457 42.8114C79.6685 41.5572 80.0649 40.2254 80.4348 38.8161C80.8047 37.3927 81.1416 36.0186 81.4455 34.6938H83.9227Z" fill="#010101"/>
<path d="M66.6966 45.9189C65.9699 45.9189 65.2367 45.8908 64.4968 45.8344C63.757 45.7921 63.1096 45.6935 62.5547 45.5384V31.3115C62.8453 31.2551 63.1558 31.2058 63.4861 31.1635C63.8164 31.1072 64.1533 31.0649 64.4968 31.0367C64.8403 31.0085 65.1772 30.9874 65.5075 30.9733C65.851 30.9592 66.1747 30.9521 66.4786 30.9521C67.3109 30.9521 68.0838 31.0226 68.7972 31.1635C69.5107 31.2904 70.125 31.5088 70.6403 31.8189C71.1687 32.1289 71.5783 32.5376 71.869 33.045C72.1596 33.5523 72.3049 34.1795 72.3049 34.9264C72.3049 35.6169 72.1464 36.2088 71.8293 36.7021C71.5254 37.1954 71.0961 37.59 70.5412 37.8859C71.3735 38.1819 71.9879 38.6188 72.3842 39.1966C72.7806 39.7744 72.9787 40.5072 72.9787 41.3951C72.9787 42.903 72.4635 44.0375 71.433 44.7985C70.4025 45.5455 68.8237 45.9189 66.6966 45.9189ZM65.0121 39.1543V43.6147C65.2895 43.6429 65.5868 43.6641 65.9039 43.6782C66.2209 43.6922 66.5116 43.6993 66.7758 43.6993C67.2911 43.6993 67.7667 43.6641 68.2027 43.5936C68.6519 43.5231 69.035 43.4033 69.3521 43.2342C69.6824 43.051 69.94 42.8114 70.125 42.5155C70.3232 42.2195 70.4223 41.839 70.4223 41.3739C70.4223 40.5425 70.1382 39.9646 69.5701 39.6405C69.002 39.3164 68.2159 39.1543 67.2118 39.1543H65.0121ZM65.0121 37.0615H66.7758C67.7271 37.0615 68.4735 36.9205 69.0152 36.6387C69.5569 36.3427 69.8277 35.8213 69.8277 35.0744C69.8277 34.3697 69.5437 33.8694 68.9756 33.5735C68.4207 33.2775 67.694 33.1295 66.7957 33.1295C66.4125 33.1295 66.069 33.1366 65.7651 33.1507C65.4745 33.1648 65.2235 33.1859 65.0121 33.2141V37.0615Z" fill="#010101"/>
</svg>
