<svg width="146" height="64" viewBox="0 0 146 64" fill="none" xmlns="http://www.w3.org/2000/svg">
<path d="M16.2275 9.39917V48.3936H4.53198C3.51029 45.9447 2.84761 43.361 2.56445 40.7227V9.39917H16.2275Z" fill="#0373E6"/>
<path d="M28.1823 12.4531C27.8976 12.4531 27.62 12.4602 27.3423 12.4672C23.4447 12.5895 19.6262 13.5984 16.1769 15.4175C16.0944 15.4597 16.0109 15.501 15.9275 15.5493C12.2674 17.5278 9.14054 20.3626 6.81371 23.8117C4.48688 27.2608 3.02922 31.2217 2.56518 35.3563C2.35327 37.2663 2.35327 39.1939 2.56518 41.104C2.84317 43.6154 3.49127 46.0719 4.48845 48.3937C8.43155 57.5714 17.5469 64.0001 28.1752 64.0001H28.1823C42.4136 64.0001 53.9522 52.4615 53.9522 38.2301V38.2231C53.9452 23.9847 42.4136 12.4531 28.1823 12.4531ZM40.1856 38.2301C40.1834 41.413 38.9181 44.4648 36.6675 46.7154C34.4169 48.966 31.3651 50.2313 28.1823 50.2335H28.1752C25.185 50.2316 22.3031 49.1139 20.0935 47.0993C17.8839 45.0846 16.5055 42.3179 16.2282 39.3406C16.1884 38.9732 16.1696 38.6038 16.1719 38.2342C16.1729 35.1964 17.3256 32.272 19.3977 30.0506C21.4697 27.8292 24.307 26.4761 27.3373 26.264C27.6165 26.2381 27.8968 26.2264 28.1772 26.2288C31.3601 26.231 34.4119 27.4963 36.6625 29.7469C38.9131 31.9975 40.1784 35.0493 40.1805 38.2321L40.1856 38.2301Z" fill="#0373E6"/>
<path d="M16.1701 39.3406V38.2341C16.1678 38.6037 16.1866 38.9732 16.2264 39.3406H16.1701Z" fill="#F5B647"/>
<path d="M27.3431 12.4631V26.2549C24.3128 26.467 21.4756 27.8201 19.4035 30.0415C17.3315 32.2629 16.1787 35.1873 16.1777 38.2251V15.4174C19.6267 13.597 23.4452 12.5866 27.3431 12.4631Z" fill="#229EFD"/>
<path d="M53.9528 38.2229V38.2299C53.9528 52.4613 42.4142 63.9999 28.1828 63.9999H28.1758V50.2333H28.1828C31.3656 50.2311 34.4175 48.9658 36.6681 46.7152C38.9187 44.4646 40.184 41.4128 40.1861 38.2299V38.2229H53.9528Z" fill="#229EFD"/>
<path d="M53.9517 38.2227H40.185C40.1829 35.0399 38.9176 31.9881 36.667 29.7375C34.4164 27.4869 31.3645 26.2215 28.1817 26.2194C27.9013 26.2169 27.621 26.2287 27.3418 26.2546V12.4628C27.6194 12.4558 27.8971 12.4487 28.1817 12.4487C42.4131 12.4528 53.9446 23.9843 53.9517 38.2227Z" fill="#0373E6"/>
<path d="M18.0003 5.97998H15.0098V8.9705H18.0003V5.97998Z" fill="white"/>
<path d="M20.9905 2.99048H18V5.981H20.9905V2.99048Z" fill="#229EFD"/>
<path d="M18.0003 0H15.0098V2.99052H18.0003V0Z" fill="white"/>
<path d="M4.81235 7.00806H2.875V8.94541H4.81235V7.00806Z" fill="white"/>
<path d="M10.1464 9.31055H7.00195V12.455H10.1464V9.31055Z" fill="#229EFD"/>
<path d="M4.81235 2.16577H2.875V4.10312H4.81235V2.16577Z" fill="white"/>
<path d="M2.87484 4H0V6.87484H2.87484V4Z" fill="#229EFD"/>
<path d="M23.8068 41.5877C25.2718 41.5877 26.4594 40.0844 26.4594 38.23C26.4594 36.3756 25.2718 34.8723 23.8068 34.8723C22.3419 34.8723 21.1543 36.3756 21.1543 38.23C21.1543 40.0844 22.3419 41.5877 23.8068 41.5877Z" fill="white"/>
<path d="M32.551 41.5877C34.0159 41.5877 35.2035 40.0844 35.2035 38.23C35.2035 36.3756 34.0159 34.8723 32.551 34.8723C31.086 34.8723 29.8984 36.3756 29.8984 38.23C29.8984 40.0844 31.086 41.5877 32.551 41.5877Z" fill="white"/>
<path d="M140.916 43.9106C141.55 43.9106 142.013 43.8331 142.303 43.6781C142.594 43.5089 142.739 43.2271 142.739 42.8325C142.739 42.4661 142.581 42.1631 142.264 41.9235C141.96 41.6839 141.451 41.4232 140.738 41.1413C140.302 40.9722 139.899 40.796 139.529 40.6128C139.172 40.4155 138.862 40.19 138.597 39.9364C138.333 39.6827 138.122 39.3797 137.963 39.0274C137.818 38.6609 137.745 38.217 137.745 37.6956C137.745 36.6809 138.095 35.8846 138.796 35.3068C139.496 34.7149 140.447 34.4189 141.649 34.4189C142.257 34.4189 142.838 34.4824 143.393 34.6092C143.948 34.7219 144.364 34.8347 144.642 34.9474L144.206 37.0191C143.942 36.8923 143.605 36.7795 143.195 36.6809C142.786 36.5681 142.31 36.5118 141.768 36.5118C141.279 36.5118 140.883 36.6034 140.579 36.7866C140.275 36.9557 140.123 37.2235 140.123 37.5899C140.123 37.7731 140.15 37.9352 140.203 38.0761C140.269 38.217 140.374 38.3509 140.52 38.4777C140.665 38.5905 140.857 38.7103 141.095 38.8371C141.332 38.9499 141.623 39.0696 141.966 39.1965C142.535 39.422 143.017 39.6475 143.413 39.8729C143.81 40.0843 144.133 40.331 144.384 40.6128C144.648 40.8806 144.84 41.1906 144.959 41.543C145.078 41.8953 145.137 42.3181 145.137 42.8113C145.137 43.8683 144.767 44.6716 144.028 45.2213C143.301 45.7568 142.257 46.0246 140.896 46.0246C139.985 46.0246 139.251 45.94 138.697 45.7709C138.142 45.6159 137.752 45.489 137.527 45.3904L137.944 43.2553C138.3 43.4103 138.723 43.5583 139.212 43.6992C139.714 43.8401 140.282 43.9106 140.916 43.9106Z" fill="white"/>
<path d="M129.918 31.7766L132.316 31.3538V34.6938H136.002V36.8289H132.316V41.3316C132.316 42.2195 132.448 42.8537 132.712 43.2342C132.976 43.6147 133.426 43.8049 134.06 43.8049C134.496 43.8049 134.879 43.7556 135.209 43.657C135.553 43.5583 135.824 43.4667 136.022 43.3822L136.418 45.4116C136.141 45.5384 135.777 45.6652 135.328 45.7921C134.879 45.933 134.351 46.0035 133.743 46.0035C133.003 46.0035 132.382 45.8978 131.88 45.6864C131.391 45.475 131.001 45.172 130.711 44.7774C130.42 44.3687 130.215 43.8825 130.096 43.3187C129.977 42.7409 129.918 42.0856 129.918 41.3528V31.7766Z" fill="white"/>
<path d="M127.566 40.2112C127.566 41.0849 127.447 41.8812 127.209 42.5999C126.971 43.3187 126.634 43.9317 126.198 44.4391C125.762 44.9464 125.234 45.341 124.613 45.6229C124.005 45.9048 123.331 46.0457 122.591 46.0457C121.852 46.0457 121.178 45.9048 120.57 45.6229C119.962 45.341 119.44 44.9464 119.004 44.4391C118.568 43.9317 118.225 43.3187 117.974 42.5999C117.736 41.8812 117.617 41.0849 117.617 40.2112C117.617 39.3374 117.736 38.5482 117.974 37.8436C118.225 37.1248 118.568 36.5118 119.004 36.0044C119.454 35.4971 119.982 35.1095 120.59 34.8417C121.198 34.5599 121.865 34.4189 122.591 34.4189C123.318 34.4189 123.985 34.5599 124.593 34.8417C125.214 35.1095 125.742 35.4971 126.178 36.0044C126.614 36.5118 126.951 37.1248 127.189 37.8436C127.44 38.5482 127.566 39.3374 127.566 40.2112ZM125.108 40.2112C125.108 39.1119 124.884 38.2452 124.434 37.611C123.998 36.9627 123.384 36.6386 122.591 36.6386C121.799 36.6386 121.178 36.9627 120.729 37.611C120.293 38.2452 120.075 39.1119 120.075 40.2112C120.075 41.3245 120.293 42.2053 120.729 42.8536C121.178 43.5019 121.799 43.826 122.591 43.826C123.384 43.826 123.998 43.5019 124.434 42.8536C124.884 42.2053 125.108 41.3245 125.108 40.2112Z" fill="white"/>
<path d="M109.429 45.9189C108.702 45.9189 107.969 45.8908 107.229 45.8344C106.489 45.7921 105.842 45.6935 105.287 45.5384V31.3115C105.578 31.2551 105.888 31.2058 106.219 31.1635C106.549 31.1072 106.886 31.0649 107.229 31.0367C107.573 31.0085 107.91 30.9874 108.24 30.9733C108.583 30.9592 108.907 30.9521 109.211 30.9521C110.043 30.9521 110.816 31.0226 111.53 31.1635C112.243 31.2904 112.857 31.5088 113.373 31.8189C113.901 32.1289 114.311 32.5376 114.601 33.045C114.892 33.5523 115.037 34.1795 115.037 34.9264C115.037 35.6169 114.879 36.2088 114.562 36.7021C114.258 37.1954 113.828 37.59 113.274 37.8859C114.106 38.1819 114.72 38.6188 115.117 39.1966C115.513 39.7744 115.711 40.5072 115.711 41.3951C115.711 42.903 115.196 44.0375 114.165 44.7985C113.135 45.5455 111.556 45.9189 109.429 45.9189ZM107.744 39.1543V43.6147C108.022 43.6429 108.319 43.6641 108.636 43.6782C108.953 43.6922 109.244 43.6993 109.508 43.6993C110.024 43.6993 110.499 43.6641 110.935 43.5936C111.384 43.5231 111.767 43.4033 112.085 43.2342C112.415 43.051 112.672 42.8114 112.857 42.5155C113.056 42.2195 113.155 41.839 113.155 41.3739C113.155 40.5425 112.871 39.9646 112.303 39.6405C111.734 39.3164 110.948 39.1543 109.944 39.1543H107.744ZM107.744 37.0615H109.508C110.46 37.0615 111.206 36.9205 111.748 36.6387C112.289 36.3427 112.56 35.8213 112.56 35.0744C112.56 34.3697 112.276 33.8694 111.708 33.5735C111.153 33.2775 110.426 33.1295 109.528 33.1295C109.145 33.1295 108.801 33.1366 108.498 33.1507C108.207 33.1648 107.956 33.1859 107.744 33.2141V37.0615Z" fill="white"/>
<path d="M93.2715 40.2746C93.2715 39.3022 93.4036 38.4496 93.6678 37.7167C93.9453 36.9839 94.3086 36.3779 94.7578 35.8987C95.207 35.4055 95.7223 35.039 96.3036 34.7995C96.8849 34.5458 97.4794 34.4189 98.0872 34.4189C99.514 34.4189 100.624 34.8911 101.417 35.8353C102.222 36.7795 102.625 38.1888 102.625 40.0632C102.625 40.2041 102.619 40.3662 102.606 40.5494C102.606 40.7185 102.599 40.8736 102.586 41.0145H95.7487C95.8147 41.9023 96.1054 42.5929 96.6207 43.0862C97.1491 43.5653 97.9088 43.8049 98.8997 43.8049C99.481 43.8049 100.009 43.7485 100.485 43.6358C100.974 43.523 101.357 43.4033 101.635 43.2764L101.952 45.3692C101.819 45.4397 101.635 45.5172 101.397 45.6018C101.172 45.6722 100.908 45.7356 100.604 45.792C100.313 45.8625 99.9963 45.9189 99.6527 45.9611C99.3092 46.0034 98.9591 46.0246 98.6024 46.0246C97.6908 46.0246 96.8981 45.8836 96.2243 45.6018C95.5505 45.3058 94.9956 44.9042 94.5596 44.3968C94.1236 43.8754 93.8 43.2694 93.5886 42.5788C93.3772 41.8742 93.2715 41.1061 93.2715 40.2746ZM100.227 39.1331C100.227 38.7807 100.181 38.4496 100.089 38.1395C99.9963 37.8154 99.8575 37.5406 99.6726 37.3151C99.5008 37.0755 99.2828 36.8923 99.0186 36.7654C98.7676 36.6245 98.4637 36.554 98.107 36.554C97.737 36.554 97.4134 36.6316 97.1359 36.7866C96.8585 36.9275 96.6207 37.1178 96.4225 37.3573C96.2375 37.5969 96.0922 37.8717 95.9865 38.1818C95.8808 38.4918 95.8081 38.8089 95.7685 39.1331H100.227Z" fill="white"/>
<path d="M85.6172 31.7766L88.0151 31.3538V34.6938H91.7012V36.8289H88.0151V41.3316C88.0151 42.2195 88.1472 42.8537 88.4115 43.2342C88.6757 43.6147 89.1249 43.8049 89.7591 43.8049C90.1951 43.8049 90.5782 43.7556 90.9085 43.657C91.252 43.5583 91.5228 43.4667 91.721 43.3822L92.1174 45.4116C91.8399 45.5384 91.4766 45.6652 91.0274 45.7921C90.5782 45.933 90.0497 46.0035 89.442 46.0035C88.7021 46.0035 88.0812 45.8978 87.5791 45.6864C87.0903 45.475 86.7005 45.172 86.4099 44.7774C86.1192 44.3687 85.9145 43.8825 85.7955 43.3187C85.6766 42.7409 85.6172 42.0856 85.6172 41.3528V31.7766Z" fill="white"/>
<path d="M83.9219 34.6938C82.8518 38.8936 81.6099 42.6987 80.1962 46.1092C79.932 46.7434 79.6612 47.286 79.3837 47.7369C79.1063 48.1879 78.7958 48.5614 78.4523 48.8573C78.1088 49.1533 77.7256 49.3647 77.3029 49.4915C76.8801 49.6325 76.3913 49.7029 75.8364 49.7029C75.4664 49.7029 75.0965 49.6606 74.7266 49.5761C74.3699 49.4915 74.099 49.3999 73.9141 49.3013L74.35 47.2507C74.8257 47.448 75.2947 47.5467 75.7571 47.5467C76.378 47.5467 76.8603 47.3846 77.2038 47.0605C77.5605 46.7504 77.871 46.2642 78.1352 45.6019C77.3821 44.0516 76.6555 42.3605 75.9553 40.5284C75.2683 38.6963 74.6539 36.7514 74.1122 34.6938H76.6687C76.8008 35.2858 76.9594 35.927 77.1443 36.6175C77.3425 37.3081 77.5539 38.0128 77.7785 38.7315C78.0031 39.4362 78.2409 40.1408 78.4919 40.8455C78.7429 41.5501 78.994 42.2054 79.245 42.8114C79.6678 41.5572 80.0641 40.2254 80.4341 38.8161C80.804 37.3927 81.1409 36.0186 81.4447 34.6938H83.9219Z" fill="white"/>
<path d="M66.6966 45.9189C65.9699 45.9189 65.2367 45.8908 64.4968 45.8344C63.757 45.7921 63.1096 45.6935 62.5547 45.5384V31.3115C62.8453 31.2551 63.1558 31.2058 63.4861 31.1635C63.8164 31.1072 64.1533 31.0649 64.4968 31.0367C64.8403 31.0085 65.1772 30.9874 65.5075 30.9733C65.851 30.9592 66.1747 30.9521 66.4786 30.9521C67.3109 30.9521 68.0838 31.0226 68.7972 31.1635C69.5107 31.2904 70.125 31.5088 70.6403 31.8189C71.1687 32.1289 71.5783 32.5376 71.869 33.045C72.1596 33.5523 72.3049 34.1795 72.3049 34.9264C72.3049 35.6169 72.1464 36.2088 71.8293 36.7021C71.5254 37.1954 71.0961 37.59 70.5412 37.8859C71.3735 38.1819 71.9879 38.6188 72.3842 39.1966C72.7806 39.7744 72.9787 40.5072 72.9787 41.3951C72.9787 42.903 72.4635 44.0375 71.433 44.7985C70.4025 45.5455 68.8237 45.9189 66.6966 45.9189ZM65.0121 39.1543V43.6147C65.2895 43.6429 65.5868 43.6641 65.9039 43.6782C66.2209 43.6922 66.5116 43.6993 66.7758 43.6993C67.2911 43.6993 67.7667 43.6641 68.2027 43.5936C68.6519 43.5231 69.035 43.4033 69.3521 43.2342C69.6824 43.051 69.94 42.8114 70.125 42.5155C70.3232 42.2195 70.4223 41.839 70.4223 41.3739C70.4223 40.5425 70.1382 39.9646 69.5701 39.6405C69.002 39.3164 68.2159 39.1543 67.2118 39.1543H65.0121ZM65.0121 37.0615H66.7758C67.7271 37.0615 68.4735 36.9205 69.0152 36.6387C69.5569 36.3427 69.8277 35.8213 69.8277 35.0744C69.8277 34.3697 69.5437 33.8694 68.9756 33.5735C68.4207 33.2775 67.694 33.1295 66.7957 33.1295C66.4125 33.1295 66.069 33.1366 65.7651 33.1507C65.4745 33.1648 65.2235 33.1859 65.0121 33.2141V37.0615Z" fill="white"/>
</svg>
