<svg width="146" height="63" viewBox="0 0 146 63" fill="none" xmlns="http://www.w3.org/2000/svg">
<g clip-path="url(#clip0_190_8284)">
<path d="M15.7633 9.12927V47.0075H4.40284C3.41065 44.6289 2.76712 42.1194 2.49219 39.5568V9.12915L15.7633 9.12927Z" fill="white"/>
<path d="M27.3756 12.0964C27.099 12.0964 26.8292 12.1031 26.5595 12.1099C22.772 12.2278 19.0612 13.2078 15.7093 14.9754C15.6283 15.0158 15.5474 15.0563 15.4664 15.1035C11.9121 17.0257 8.87569 19.7795 6.61639 23.1297C4.35709 26.4799 2.94202 30.327 2.49197 34.3427C2.28523 36.1982 2.28523 38.0709 2.49197 39.9263C3.17391 46.0455 6.08901 51.6981 10.6791 55.8018C15.2692 59.9055 21.2116 62.1719 27.3687 62.167H27.3756C41.1998 62.167 52.4074 50.9593 52.4074 37.1351V37.1283C52.4007 23.2973 41.1998 12.0964 27.3756 12.0964ZM39.0346 37.1351C39.0326 40.2268 37.8035 43.1912 35.6174 45.3773C33.4313 47.5634 30.4669 48.7925 27.3752 48.7945H27.3683C24.4637 48.7928 21.6642 47.7073 19.5177 45.7505C17.3713 43.7936 16.0322 41.1061 15.7627 38.214C15.7245 37.8557 15.7066 37.4955 15.7089 37.1351C15.7089 34.1829 16.8288 31.3405 18.8426 29.1817C20.8563 27.0228 23.614 25.7082 26.5592 25.5032C26.8305 25.4783 27.1028 25.467 27.3752 25.4694C30.4669 25.4715 33.4313 26.7006 35.6174 28.8867C37.8035 31.0729 39.0326 34.0373 39.0346 37.1289V37.1351Z" fill="white"/>
<path d="M15.7092 38.2144V37.1355C15.7068 37.4959 15.7248 37.8561 15.763 38.2144H15.7092Z" fill="#F5B647"/>
<path d="M26.5592 12.1101V25.5026C23.6141 25.7077 20.8564 27.0223 18.8426 29.1811C16.8289 31.34 15.709 34.1823 15.709 37.1346V14.9756C19.0609 13.208 22.7717 12.228 26.5592 12.1101Z" fill="#BBBDBF"/>
<path d="M52.4069 37.1284V37.1352C52.4069 50.9594 41.1999 62.1671 27.3751 62.1671H27.3682V48.7947H27.3751C30.4667 48.7927 33.4311 47.5636 35.6172 45.3775C37.8034 43.1914 39.0324 40.227 39.0345 37.1353V37.1286L52.4069 37.1284Z" fill="#8C8C8C"/>
<path d="M52.4068 37.1282H39.034C39.032 34.0366 37.8029 31.0721 35.6168 28.886C33.4307 26.6999 30.4663 25.4708 27.3746 25.4687C27.1022 25.4663 26.8299 25.4775 26.5586 25.5024V12.1099C26.8284 12.1031 27.0981 12.0964 27.3746 12.0964C41.1992 12.0963 52.4001 23.2972 52.4068 37.1282Z" fill="#8C8C8C"/>
<path d="M17.4836 5.80884H14.5791V8.7133H17.4836V5.80884Z" fill="#939598"/>
<path d="M20.3879 2.90454H17.4834V5.80901H20.3879V2.90454Z" fill="white"/>
<path d="M17.4836 0H14.5791V2.90447H17.4836V0Z" fill="#939598"/>
<path d="M4.6735 6.80762H2.79199V8.68913H4.6735V6.80762Z" fill="#939598"/>
<path d="M9.85569 9.04346H6.80176V12.0974H9.85569V9.04346Z" fill="black"/>
<path d="M4.6735 2.10376H2.79199V3.98527H4.6735V2.10376Z" fill="#939598"/>
<path d="M2.79215 4.01538H0V6.80753H2.79215V4.01538Z" fill="white"/>
<path d="M23.1252 40.3969C24.5481 40.3969 25.7016 38.9366 25.7016 37.1352C25.7016 35.3338 24.5481 33.8735 23.1252 33.8735C21.7023 33.8735 20.5488 35.3338 20.5488 37.1352C20.5488 38.9366 21.7023 40.3969 23.1252 40.3969Z" fill="white"/>
<path d="M31.6194 40.3969C33.0423 40.3969 34.1958 38.9366 34.1958 37.1352C34.1958 35.3338 33.0423 33.8735 31.6194 33.8735C30.1965 33.8735 29.043 35.3338 29.043 37.1352C29.043 38.9366 30.1965 40.3969 31.6194 40.3969Z" fill="white"/>
</g>
<path d="M66.0372 43.4799C65.3202 43.4799 64.5966 43.4539 63.8666 43.4017C63.1365 43.3626 62.4977 43.2713 61.9502 43.1279V29.9675C62.237 29.9153 62.5434 29.8697 62.8693 29.8306C63.1952 29.7784 63.5276 29.7393 63.8666 29.7132C64.2055 29.6872 64.538 29.6676 64.8639 29.6546C65.2029 29.6415 65.5222 29.635 65.8221 29.635C66.6434 29.635 67.406 29.7002 68.11 29.8306C68.814 29.9479 69.4202 30.15 69.9286 30.4368C70.4501 30.7236 70.8542 31.1016 71.141 31.571C71.4278 32.0403 71.5712 32.6204 71.5712 33.3113C71.5712 33.9501 71.4148 34.4977 71.1019 34.954C70.8021 35.4102 70.3784 35.7753 69.8309 36.049C70.6522 36.3228 71.2584 36.7269 71.6495 37.2615C72.0406 37.796 72.2361 38.4739 72.2361 39.2952C72.2361 40.6901 71.7277 41.7395 70.7108 42.4435C69.694 43.1345 68.1361 43.4799 66.0372 43.4799ZM64.375 37.2223V41.3484C64.6488 41.3745 64.9421 41.3941 65.255 41.4071C65.5679 41.4201 65.8547 41.4267 66.1154 41.4267C66.6238 41.4267 67.0932 41.3941 67.5234 41.3289C67.9666 41.2637 68.3447 41.1529 68.6576 40.9964C68.9835 40.827 69.2377 40.6053 69.4202 40.3316C69.6158 40.0578 69.7135 39.7058 69.7135 39.2756C69.7135 38.5064 69.4332 37.9719 68.8727 37.6721C68.3121 37.3723 67.5364 37.2223 66.5456 37.2223H64.375ZM64.375 35.2864H66.1154C67.0541 35.2864 67.7906 35.156 68.3251 34.8953C68.8596 34.6215 69.1269 34.1392 69.1269 33.4482C69.1269 32.7964 68.8466 32.3336 68.286 32.0598C67.7385 31.7861 67.0215 31.6492 66.135 31.6492C65.7569 31.6492 65.418 31.6557 65.1181 31.6687C64.8313 31.6818 64.5836 31.7013 64.375 31.7274V35.2864ZM83.0349 33.0962C81.9789 36.9812 80.7535 40.5011 79.3585 43.6559C79.0978 44.2426 78.8306 44.7445 78.5568 45.1617C78.283 45.5788 77.9767 45.9243 77.6377 46.1981C77.2988 46.4718 76.9207 46.6674 76.5035 46.7847C76.0864 46.9151 75.604 46.9803 75.0565 46.9803C74.6914 46.9803 74.3264 46.9412 73.9614 46.8629C73.6094 46.7847 73.3421 46.7 73.1596 46.6087L73.5898 44.7119C74.0592 44.8944 74.522 44.9857 74.9782 44.9857C75.591 44.9857 76.0668 44.8357 76.4058 44.5359C76.7577 44.2491 77.0641 43.7993 77.3248 43.1866C76.5817 41.7526 75.8647 40.1882 75.1738 38.4934C74.4959 36.7986 73.8897 34.9996 73.3552 33.0962H75.8778C76.0081 33.6438 76.1646 34.237 76.3471 34.8757C76.5426 35.5145 76.7512 36.1664 76.9728 36.8312C77.1945 37.4831 77.4291 38.1349 77.6768 38.7867C77.9245 39.4386 78.1722 40.0448 78.4199 40.6053C78.8371 39.4451 79.2282 38.2131 79.5932 36.9095C79.9582 35.5928 80.2907 34.3217 80.5905 33.0962H83.0349ZM84.7079 30.3977L87.074 30.0066V33.0962H90.7113V35.0713H87.074V39.2365C87.074 40.0578 87.2044 40.6445 87.4651 40.9964C87.7259 41.3484 88.1691 41.5244 88.7949 41.5244C89.2251 41.5244 89.6032 41.4788 89.9291 41.3875C90.268 41.2963 90.5353 41.2116 90.7308 41.1333L91.1219 43.0106C90.8482 43.1279 90.4896 43.2453 90.0464 43.3626C89.6032 43.493 89.0817 43.5581 88.482 43.5581C87.752 43.5581 87.1392 43.4604 86.6438 43.2648C86.1615 43.0693 85.7769 42.789 85.4901 42.424C85.2033 42.0459 85.0012 41.5961 84.8839 41.0747C84.7666 40.5402 84.7079 39.934 84.7079 39.2561V30.3977ZM92.2596 38.2588C92.2596 37.3592 92.39 36.5705 92.6507 35.8926C92.9245 35.2147 93.283 34.6541 93.7262 34.2109C94.1695 33.7546 94.6779 33.4156 95.2515 33.194C95.8251 32.9594 96.4118 32.842 97.0115 32.842C98.4194 32.842 99.5145 33.2788 100.297 34.1522C101.092 35.0257 101.49 36.3293 101.49 38.0632C101.49 38.1936 101.483 38.3435 101.47 38.513C101.47 38.6694 101.463 38.8128 101.45 38.9432H94.704C94.7692 39.7645 95.056 40.4033 95.5644 40.8596C96.0859 41.3028 96.8355 41.5244 97.8132 41.5244C98.3868 41.5244 98.9083 41.4723 99.3776 41.368C99.86 41.2637 100.238 41.1529 100.512 41.0356L100.825 42.9715C100.694 43.0367 100.512 43.1084 100.277 43.1866C100.056 43.2518 99.7948 43.3104 99.495 43.3626C99.2082 43.4278 98.8953 43.4799 98.5563 43.519C98.2174 43.5581 97.8719 43.5777 97.5199 43.5777C96.6204 43.5777 95.8382 43.4473 95.1733 43.1866C94.5084 42.9128 93.9609 42.5413 93.5307 42.072C93.1005 41.5896 92.7811 41.029 92.5725 40.3902C92.3639 39.7384 92.2596 39.0279 92.2596 38.2588ZM99.1234 37.2028C99.1234 36.8769 99.0778 36.5705 98.9865 36.2837C98.8953 35.9839 98.7584 35.7296 98.5759 35.5211C98.4064 35.2994 98.1913 35.13 97.9306 35.0126C97.6829 34.8823 97.383 34.8171 97.031 34.8171C96.666 34.8171 96.3466 34.8888 96.0728 35.0322C95.7991 35.1626 95.5644 35.3385 95.3689 35.5602C95.1864 35.7818 95.0429 36.036 94.9387 36.3228C94.8344 36.6096 94.7627 36.9029 94.7235 37.2028H99.1234ZM108.203 43.4799C107.486 43.4799 106.762 43.4539 106.032 43.4017C105.302 43.3626 104.663 43.2713 104.116 43.1279V29.9675C104.402 29.9153 104.709 29.8697 105.035 29.8306C105.361 29.7784 105.693 29.7393 106.032 29.7132C106.371 29.6872 106.703 29.6676 107.029 29.6546C107.368 29.6415 107.688 29.635 107.987 29.635C108.809 29.635 109.571 29.7002 110.275 29.8306C110.979 29.9479 111.586 30.15 112.094 30.4368C112.615 30.7236 113.02 31.1016 113.306 31.571C113.593 32.0403 113.737 32.6204 113.737 33.3113C113.737 33.9501 113.58 34.4977 113.267 34.954C112.967 35.4102 112.544 35.7753 111.996 36.049C112.818 36.3228 113.424 36.7269 113.815 37.2615C114.206 37.796 114.401 38.4739 114.401 39.2952C114.401 40.6901 113.893 41.7395 112.876 42.4435C111.859 43.1345 110.301 43.4799 108.203 43.4799ZM106.54 37.2223V41.3484C106.814 41.3745 107.107 41.3941 107.42 41.4071C107.733 41.4201 108.02 41.4267 108.281 41.4267C108.789 41.4267 109.259 41.3941 109.689 41.3289C110.132 41.2637 110.51 41.1529 110.823 40.9964C111.149 40.827 111.403 40.6053 111.586 40.3316C111.781 40.0578 111.879 39.7058 111.879 39.2756C111.879 38.5064 111.599 37.9719 111.038 37.6721C110.477 37.3723 109.702 37.2223 108.711 37.2223H106.54ZM106.54 35.2864H108.281C109.219 35.2864 109.956 35.156 110.49 34.8953C111.025 34.6215 111.292 34.1392 111.292 33.4482C111.292 32.7964 111.012 32.3336 110.451 32.0598C109.904 31.7861 109.187 31.6492 108.3 31.6492C107.922 31.6492 107.583 31.6557 107.283 31.6687C106.997 31.6818 106.749 31.7013 106.54 31.7274V35.2864ZM126.1 38.2001C126.1 39.0084 125.982 39.7449 125.748 40.4098C125.513 41.0747 125.181 41.6418 124.75 42.1111C124.32 42.5804 123.799 42.9454 123.186 43.2062C122.586 43.4669 121.922 43.5973 121.191 43.5973C120.461 43.5973 119.797 43.4669 119.197 43.2062C118.597 42.9454 118.082 42.5804 117.652 42.1111C117.222 41.6418 116.883 41.0747 116.635 40.4098C116.401 39.7449 116.283 39.0084 116.283 38.2001C116.283 37.3918 116.401 36.6618 116.635 36.0099C116.883 35.3451 117.222 34.778 117.652 34.3087C118.095 33.8393 118.617 33.4808 119.216 33.2331C119.816 32.9724 120.474 32.842 121.191 32.842C121.909 32.842 122.567 32.9724 123.167 33.2331C123.779 33.4808 124.301 33.8393 124.731 34.3087C125.161 34.778 125.494 35.3451 125.728 36.0099C125.976 36.6618 126.1 37.3918 126.1 38.2001ZM123.675 38.2001C123.675 37.1832 123.453 36.3815 123.01 35.7948C122.58 35.1951 121.974 34.8953 121.191 34.8953C120.409 34.8953 119.797 35.1951 119.353 35.7948C118.923 36.3815 118.708 37.1832 118.708 38.2001C118.708 39.23 118.923 40.0448 119.353 40.6445C119.797 41.2441 120.409 41.544 121.191 41.544C121.974 41.544 122.58 41.2441 123.01 40.6445C123.453 40.0448 123.675 39.23 123.675 38.2001ZM128.42 30.3977L130.786 30.0066V33.0962H134.423V35.0713H130.786V39.2365C130.786 40.0578 130.917 40.6445 131.177 40.9964C131.438 41.3484 131.881 41.5244 132.507 41.5244C132.937 41.5244 133.315 41.4788 133.641 41.3875C133.98 41.2963 134.247 41.2116 134.443 41.1333L134.834 43.0106C134.56 43.1279 134.202 43.2453 133.759 43.3626C133.315 43.493 132.794 43.5581 132.194 43.5581C131.464 43.5581 130.851 43.4604 130.356 43.2648C129.874 43.0693 129.489 42.789 129.202 42.424C128.915 42.0459 128.713 41.5961 128.596 41.0747C128.479 40.5402 128.42 39.934 128.42 39.2561V30.3977ZM139.272 41.6222C139.898 41.6222 140.355 41.5505 140.641 41.4071C140.928 41.2507 141.072 40.9899 141.072 40.6249C141.072 40.2859 140.915 40.0057 140.602 39.784C140.302 39.5624 139.8 39.3212 139.096 39.0605C138.666 38.9041 138.269 38.7411 137.904 38.5716C137.552 38.3891 137.245 38.1805 136.985 37.9459C136.724 37.7112 136.515 37.4309 136.359 37.105C136.215 36.7661 136.144 36.3554 136.144 35.873C136.144 34.9344 136.489 34.1978 137.18 33.6633C137.871 33.1158 138.81 32.842 139.996 32.842C140.596 32.842 141.169 32.9007 141.717 33.018C142.264 33.1223 142.675 33.2266 142.949 33.3309L142.519 35.2473C142.258 35.13 141.925 35.0257 141.521 34.9344C141.117 34.8301 140.648 34.778 140.113 34.778C139.631 34.778 139.24 34.8627 138.94 35.0322C138.64 35.1886 138.49 35.4363 138.49 35.7753C138.49 35.9447 138.516 36.0947 138.569 36.225C138.634 36.3554 138.738 36.4793 138.881 36.5966C139.025 36.7009 139.214 36.8117 139.448 36.929C139.683 37.0333 139.97 37.1441 140.309 37.2615C140.869 37.47 141.345 37.6786 141.736 37.8872C142.128 38.0828 142.447 38.3109 142.695 38.5716C142.955 38.8193 143.144 39.1061 143.262 39.4321C143.379 39.758 143.438 40.1491 143.438 40.6053C143.438 41.5831 143.073 42.3262 142.343 42.8346C141.626 43.33 140.596 43.5777 139.253 43.5777C138.353 43.5777 137.63 43.4995 137.082 43.343C136.535 43.1996 136.15 43.0823 135.929 42.9911L136.339 41.016C136.691 41.1594 137.108 41.2963 137.591 41.4267C138.086 41.557 138.647 41.6222 139.272 41.6222Z" fill="white"/>
<defs>
<clipPath id="clip0_190_8284">
<rect width="52.4073" height="62.1672" fill="white"/>
</clipPath>
</defs>
</svg>
